<svg width="138" height="43" viewBox="0 0 138 43" fill="none" xmlns="http://www.w3.org/2000/svg">
<g clip-path="url(#clip0_86_347)">
<path fill-rule="evenodd" clip-rule="evenodd" d="M85.613 33.3702C77.5936 39.2742 65.97 42.4242 55.9622 42.4242C41.9298 42.4242 29.2969 37.2402 19.7397 28.6182C18.9888 27.9402 19.6616 27.0162 20.5627 27.5442C30.8768 33.5382 43.6298 37.1442 56.8032 37.1442C65.6876 37.1442 75.4611 35.3082 84.4477 31.4982C85.8053 30.9222 86.9406 32.3862 85.613 33.3702Z" fill="#FF9900"/>
<path fill-rule="evenodd" clip-rule="evenodd" d="M88.9462 29.5603C87.925 28.2523 82.1703 28.9423 79.5873 29.2483C78.8003 29.3443 78.6802 28.6603 79.389 28.1683C83.9724 24.9463 91.4932 25.8763 92.3703 26.9563C93.2473 28.0423 92.142 35.5723 87.8349 39.1663C87.1742 39.7183 86.5434 39.4243 86.8378 38.6923C87.8049 36.2803 89.9734 30.8743 88.9462 29.5603Z" fill="#FF9900"/>
<path fill-rule="evenodd" clip-rule="evenodd" d="M79.7677 5.42229V2.29029C79.7677 1.81629 80.1281 1.49829 80.5606 1.49829H94.5991C95.0496 1.49829 95.41 1.82229 95.41 2.29029V4.97229C95.404 5.42229 95.0256 6.01029 94.3528 6.94029L87.0783 17.3143C89.7814 17.2483 92.6348 17.6503 95.0857 19.0303C95.6383 19.3423 95.7885 19.7983 95.8305 20.2483V23.5903C95.8305 24.0463 95.3259 24.5803 94.7973 24.3043C90.4783 22.0423 84.7415 21.7963 79.9659 24.3283C79.4793 24.5923 78.9688 24.0643 78.9688 23.6083V20.4343C78.9688 19.9243 78.9748 19.0543 79.4853 18.2803L87.9132 6.20829H80.5786C80.1281 6.20829 79.7677 5.89029 79.7677 5.42229Z" fill="black"/>
<path fill-rule="evenodd" clip-rule="evenodd" d="M28.5583 24.9644H24.2873C23.8788 24.9344 23.5545 24.6284 23.5244 24.2384V2.34444C23.5244 1.90644 23.8908 1.55844 24.3474 1.55844H28.3301C28.7445 1.57642 29.0749 1.89444 29.105 2.29043V5.15244H29.1831C30.2223 2.38643 32.1746 1.09644 34.8057 1.09644C37.4788 1.09644 39.1488 2.38643 40.3502 5.15244C41.3834 2.38643 43.7321 1.09644 46.2491 1.09644C48.0392 1.09644 49.9975 1.83443 51.1929 3.49043C52.5445 5.33243 52.2682 8.00843 52.2682 10.3544L52.2622 24.1724C52.2622 24.6104 51.8957 24.9644 51.4392 24.9644H47.1742C46.7477 24.9344 46.4053 24.5924 46.4053 24.1724V12.5684C46.4053 11.6444 46.4894 9.34043 46.2851 8.46443C45.9668 6.99443 45.0116 6.58043 43.7742 6.58043C42.741 6.58043 41.6597 7.27043 41.2212 8.37443C40.7827 9.47843 40.8247 11.3264 40.8247 12.5684V24.1724C40.8247 24.6104 40.4583 24.9644 40.0018 24.9644H35.7368C35.3042 24.9344 34.9679 24.5924 34.9679 24.1724L34.9618 12.5684C34.9618 10.1264 35.3643 6.53243 32.3308 6.53243C29.2612 6.53243 29.3813 10.0364 29.3813 12.5684V24.1724C29.3813 24.6104 29.0149 24.9644 28.5583 24.9644Z" fill="black"/>
<path fill-rule="evenodd" clip-rule="evenodd" d="M107.496 1.09644C113.833 1.09644 117.264 6.53243 117.264 13.4444C117.264 20.1224 113.473 25.4204 107.496 25.4204C101.273 25.4204 97.8848 19.9844 97.8848 13.2104C97.8848 6.39443 101.315 1.09644 107.496 1.09644ZM107.532 5.56644C104.384 5.56644 104.186 9.85043 104.186 12.5204C104.186 15.1964 104.144 20.9084 107.496 20.9084C110.806 20.9084 110.962 16.3004 110.962 13.4924C110.962 11.6444 110.884 9.43643 110.325 7.68443C109.845 6.16044 108.89 5.56644 107.532 5.56644Z" fill="black"/>
<path fill-rule="evenodd" clip-rule="evenodd" d="M125.482 24.9644H121.229C120.803 24.9344 120.46 24.5924 120.46 24.1724L120.454 2.27243C120.49 1.87043 120.845 1.55844 121.277 1.55844H125.236C125.608 1.57642 125.915 1.82844 125.999 2.17044V5.51843H126.077C127.272 2.52444 128.948 1.09644 131.898 1.09644C133.814 1.09644 135.682 1.78644 136.883 3.67643C138.001 5.42843 138.001 8.37443 138.001 10.4924V24.2744C137.953 24.6584 137.598 24.9644 137.178 24.9644H132.895C132.504 24.9344 132.18 24.6464 132.138 24.2744V12.3824C132.138 9.98843 132.414 6.48443 129.465 6.48443C128.425 6.48443 127.47 7.18043 126.996 8.23643C126.395 9.57443 126.317 10.9064 126.317 12.3824V24.1724C126.311 24.6104 125.939 24.9644 125.482 24.9644Z" fill="black"/>
<path fill-rule="evenodd" clip-rule="evenodd" d="M68.576 14.5062C68.576 16.1682 68.618 17.5542 67.777 19.0302C67.0983 20.2302 66.017 20.9682 64.8216 20.9682C63.1817 20.9682 62.2205 19.7202 62.2205 17.8782C62.2205 14.2422 65.4824 13.5822 68.576 13.5822V14.5062ZM72.883 24.9042C72.6007 25.1562 72.1922 25.1742 71.8739 25.0062C70.4562 23.8302 70.1979 23.2842 69.423 22.1622C67.0802 24.5502 65.4163 25.2642 62.3827 25.2642C58.7845 25.2642 55.9912 23.0502 55.9912 18.6162C55.9912 15.1542 57.8654 12.7962 60.5446 11.6442C62.8633 10.6242 66.1011 10.4442 68.576 10.1622V9.61023C68.576 8.59622 68.6541 7.39622 68.0534 6.52023C67.5368 5.73423 66.5396 5.41023 65.6566 5.41023C64.0286 5.41023 62.5809 6.24423 62.2265 7.97223C62.1544 8.35623 61.8721 8.73423 61.4817 8.75223L57.3428 8.30822C56.9944 8.23023 56.6039 7.94822 56.706 7.41423C57.6552 2.39823 62.1965 0.88623 66.2573 0.88623C68.3357 0.88623 71.0509 1.43823 72.6908 3.01023C74.7693 4.94823 74.571 7.53423 74.571 10.3482V16.9962C74.571 18.9942 75.4 19.8702 76.1809 20.9502C76.4512 21.3342 76.5113 21.7962 76.1629 22.0842C75.2919 22.8102 73.742 24.1602 72.889 24.9162L72.883 24.9042Z" fill="black"/>
<path fill-rule="evenodd" clip-rule="evenodd" d="M12.5848 14.5062C12.5848 16.1682 12.6268 17.5542 11.7858 19.0302C11.107 20.2302 10.0318 20.9682 8.83036 20.9682C7.19044 20.9682 6.23532 19.7202 6.23532 17.8782C6.23532 14.2422 9.49715 13.5822 12.5848 13.5822V14.5062ZM16.8918 24.9042C16.6095 25.1562 16.201 25.1742 15.8826 25.0062C14.465 23.8302 14.2127 23.2842 13.4318 22.1622C11.089 24.5502 9.43107 25.2642 6.3915 25.2642C2.79928 25.2642 0 23.0502 0 18.6162C0 15.1542 1.88021 12.7962 4.55334 11.6442C6.87206 10.6242 10.1099 10.4442 12.5848 10.1622V9.61023C12.5848 8.59622 12.6629 7.39622 12.0682 6.52023C11.5455 5.73423 10.5484 5.41023 9.67135 5.41023C8.04344 5.41023 6.58973 6.24423 6.23532 7.97223C6.16323 8.35623 5.8809 8.73423 5.49645 8.75223L1.35159 8.30822C1.00318 8.23023 0.618725 7.94822 0.714838 7.41423C1.66996 2.39823 6.20528 0.88623 10.2661 0.88623C12.3445 0.88623 15.0597 1.43823 16.6996 3.01023C18.778 4.94823 18.5798 7.53423 18.5798 10.3482V16.9962C18.5798 18.9942 19.4088 19.8702 20.1897 20.9502C20.466 21.3342 20.5261 21.7962 20.1777 22.0842C19.3067 22.8102 17.7568 24.1602 16.9038 24.9162L16.8918 24.9042Z" fill="black"/>
</g>
<defs>
<clipPath id="clip0_86_347">
<rect width="138" height="41.538" fill="white" transform="translate(0 0.88623)"/>
</clipPath>
</defs>
</svg>
