<svg width="319" height="28" viewBox="0 0 319 28" fill="none" xmlns="http://www.w3.org/2000/svg">
<g clip-path="url(#clip0_86_333)">
<path d="M186.129 25.7842C185.742 25.8608 185.356 25.8608 185.047 25.8608C184.196 25.8608 183.423 25.6309 182.805 25.0947C182.187 24.5584 181.491 23.7157 180.718 22.5666C181.955 20.728 182.496 18.5063 182.496 15.9016C182.496 15.3653 182.496 14.7525 182.419 14.1396C182.419 13.9098 182.496 13.7565 182.728 13.6799L184.969 13.0671L184.892 12.2244C184.428 12.2244 183.887 12.301 183.423 12.301C182.882 12.301 182.341 12.301 181.723 12.301C181.027 12.301 180.332 12.301 179.713 12.301C179.018 12.301 178.399 12.301 177.704 12.2244V13.0671L179.868 13.5267C180.1 13.6033 180.254 13.6799 180.409 13.7565C180.486 13.8332 180.564 13.9864 180.641 14.2928C180.718 14.7525 180.718 15.3653 180.718 16.1314C180.718 17.97 180.332 19.6554 179.559 21.111L171.984 12.4542C175.617 10.6922 177.24 8.62374 177.24 6.01904C177.24 4.41025 176.776 3.10789 175.617 2.18858C174.534 1.34588 173.143 0.88623 171.443 0.88623C169.51 0.88623 167.964 1.42249 166.65 2.49502C165.336 3.56755 164.718 4.94651 164.718 6.78513C164.718 7.78104 164.872 8.70035 165.259 9.61966C165.645 10.539 166.418 11.7647 167.732 13.3735C164.331 15.2887 162.631 17.6636 162.631 20.4981C162.631 22.6432 163.481 24.3286 165.104 25.5543C166.728 26.7801 168.815 27.393 171.211 27.393C173.839 27.393 176.158 26.5503 178.245 24.9415C179.559 26.6269 181.105 27.4696 183.037 27.4696C184.119 27.4696 185.201 27.1631 186.283 26.6269L186.129 25.7842ZM169.51 2.80146C170.515 2.18858 171.906 2.3418 172.834 3.03128C173.839 3.79737 174.148 4.94651 174.071 6.09564C174.071 8.39392 172.834 10.0793 170.979 11.4583C169.433 9.84949 168.196 8.2407 167.964 6.01904C167.887 4.71668 168.505 3.41433 169.51 2.80146ZM172.061 25.4011C170.283 25.4011 168.969 24.8649 167.964 23.8689C166.959 22.873 166.496 21.4941 166.496 19.8087C166.496 17.587 167.346 15.825 168.969 14.3694L176.699 23.6391C175.307 24.8649 173.761 25.4011 172.061 25.4011Z" fill="#C0A02E"/>
<path d="M10.0485 16.0546H3.86479V22.1067H10.3576C13.063 22.1067 14.6862 21.0341 14.6862 19.0423V18.9657C14.6089 17.1271 13.1403 16.0546 10.0485 16.0546ZM13.3722 9.696C13.3722 7.93399 11.9809 6.86147 9.43009 6.86147H3.86479V12.7604H9.19821C11.749 12.7604 13.3722 11.7644 13.3722 9.696ZM0 3.41406H9.97117C12.5219 3.41406 14.5316 4.10354 15.7684 5.4059C16.7732 6.40181 17.237 7.55095 17.237 9.08313V9.15974C17.237 11.8411 15.6911 13.22 14.0678 14.0627C16.6959 14.982 18.4737 16.4376 18.4737 19.4254V19.502C18.4737 23.409 15.2273 25.5541 10.2031 25.5541H0V3.41406Z" fill="#54575A"/>
<path d="M39.962 16.7439L36.0972 7.93389L32.3097 16.7439H39.962ZM34.3967 3.26074H38.0296L47.8461 25.4774H43.6722L41.4306 20.1147H30.9183L28.5995 25.4774H24.5801L34.3967 3.26074Z" fill="#54575A"/>
<path d="M66.0878 14.3692C68.8704 14.3692 70.6482 12.9136 70.6482 10.6919V10.6153C70.6482 8.24043 68.9477 6.93808 66.0105 6.93808H60.2906V14.3692H66.0878ZM56.4258 3.41406H66.3969C69.1796 3.41406 71.4212 4.25676 72.8125 5.63572C73.9719 6.86147 74.6676 8.47026 74.6676 10.3855V10.4621C74.6676 14.0627 72.5033 16.2844 69.4115 17.1271L75.4406 25.4775H70.8028L65.3148 17.74H60.4452V25.4775H56.4258V3.41406Z" fill="#54575A"/>
<path d="M83.5566 3.41406H87.1895L99.1704 18.7359V3.41406H103.035V25.5541H99.7115L87.4214 9.84922V25.5541H83.5566V3.41406Z" fill="#54575A"/>
<path d="M113.548 3.41406H130.012V6.93808H117.413V12.6838H128.621V16.1312H117.413V22.0301H130.244V25.5541H113.548V3.41406Z" fill="#54575A"/>
<path d="M137.509 22.3368L139.828 19.5789C141.992 21.4175 144.156 22.49 146.862 22.49C149.258 22.49 150.804 21.3409 150.804 19.7321V19.6555C150.804 18.0467 149.876 17.204 145.779 16.2847C141.064 15.1356 138.359 13.7566 138.359 9.69634V9.61973C138.359 5.86589 141.528 3.18457 145.934 3.18457C149.18 3.18457 151.731 4.18049 154.05 5.9425L151.963 8.85364C149.953 7.39807 147.944 6.55537 145.934 6.55537C143.615 6.55537 142.301 7.7045 142.301 9.16008V9.23668C142.301 10.9221 143.306 11.6882 147.635 12.6841C152.35 13.8332 154.746 15.5186 154.746 19.1192V19.2725C154.746 23.4094 151.499 25.8608 146.784 25.8608C143.383 25.8608 140.214 24.7117 137.509 22.3368Z" fill="#54575A"/>
<path d="M194.013 3.72046H197.646L209.626 19.0423V3.72046H213.491V25.8605H210.168L197.877 10.079V25.8605H194.013V3.72046Z" fill="#54575A"/>
<path d="M240.312 14.829C240.312 10.4623 237.143 6.93827 232.737 6.93827C228.331 6.93827 225.239 10.4623 225.239 14.7524V14.829C225.239 19.1191 228.409 22.6431 232.814 22.6431C237.22 22.6431 240.312 19.1191 240.312 14.829ZM221.065 14.829C221.065 8.54706 225.935 3.33765 232.737 3.33765C239.616 3.33765 244.331 8.47045 244.331 14.6758V14.7524C244.331 20.9577 239.462 26.1671 232.66 26.1671C225.858 26.2437 221.065 21.0343 221.065 14.829Z" fill="#54575A"/>
<path d="M262.729 16.3609H256.546V22.4131H263.038C265.744 22.4131 267.367 21.3405 267.367 19.4253V19.2721C267.29 17.4335 265.821 16.3609 262.729 16.3609ZM266.053 10.0024C266.053 8.24039 264.662 7.16787 262.111 7.16787H256.468V13.0668H261.802C264.353 13.0668 266.053 12.0708 266.053 10.0024ZM252.681 3.72046H262.652C265.203 3.72046 267.212 4.40994 268.449 5.71229C269.454 6.70821 269.918 7.85735 269.918 9.38953V9.46614C269.918 12.1475 268.372 13.5264 266.749 14.3691C269.377 15.2884 271.155 16.744 271.155 19.7317V19.8084C271.155 23.7154 267.908 25.8605 262.884 25.8605H252.604V3.72046H252.681Z" fill="#54575A"/>
<path d="M278.497 3.72046H282.439V22.2598H294.111V25.8605H278.497V3.72046Z" fill="#54575A"/>
<path d="M302.382 3.72046V25.8605H319V22.3365H306.247V16.4376H317.455V12.9135H306.247V7.24447H318.846V3.72046H302.382Z" fill="#54575A"/>
</g>
<defs>
<clipPath id="clip0_86_333">
<rect width="319" height="26.5833" fill="white" transform="translate(0 0.88623)"/>
</clipPath>
</defs>
</svg>
