<svg width="51" height="72" viewBox="0 0 51 72" fill="none" xmlns="http://www.w3.org/2000/svg">
<g clip-path="url(#clip0_86_330)">
<path fill-rule="evenodd" clip-rule="evenodd" d="M25.48 0.88623C11.4158 0.88623 0 12.2253 0 26.2163C0 32.9831 2.64846 39.3842 7.48875 44.1393C12.329 48.8944 18.7219 51.5463 25.48 51.5463C39.5442 51.5463 50.96 40.2072 50.96 26.1248C50.96 12.2253 39.5442 0.88623 25.48 0.88623ZM41.1881 32.7088C38.5396 39.0184 32.3295 43.1334 25.48 43.1334C16.1647 43.1334 8.49333 35.635 8.49333 26.2163C8.49333 19.358 12.603 13.2312 18.9958 10.5793C25.3887 7.92743 32.6948 9.39054 37.535 14.2371C42.3753 19.1751 43.8366 26.3992 41.1881 32.7088ZM33.9733 26.2163C33.9733 30.8799 30.1376 34.6291 25.48 34.6291C20.8224 34.6291 16.9867 30.8799 16.9867 26.2163C16.9867 21.5526 20.8224 17.8034 25.48 17.8034C30.1376 17.8034 33.9733 21.5526 33.9733 26.2163ZM4.38366 54.9297V57.9474H6.39283V59.7763H4.38366V64.7143C4.38366 65.6287 4.65763 65.903 5.5709 65.903C5.84487 65.903 6.11885 65.903 6.39283 65.8116V67.9148C5.84487 68.0062 5.29692 68.0062 4.74896 68.0062C2.64846 68.0062 1.64387 67.3661 1.64387 65.6287V59.7763H0V57.9474H1.64387V54.9297H4.38366ZM16.9867 66.0859C16.4387 66.0859 16.2561 65.9945 16.2561 65.2629V60.5078C16.2561 58.6789 14.7948 57.6731 11.8724 57.6731C9.04129 57.6731 7.30609 58.8618 7.21477 60.965H9.95455C10.0459 59.9592 10.6852 59.5019 11.7811 59.5019C12.6943 59.5019 13.5163 59.6848 13.5163 60.8736C13.5163 61.788 12.7857 61.8795 10.9591 62.0624C9.31527 62.1538 8.40201 62.5196 7.76272 63.0683C7.12344 63.6169 6.84946 64.3485 6.84946 65.1715C6.84946 67.0918 8.21935 68.1891 10.2285 68.1891C11.8724 68.1891 13.0596 67.6405 13.6989 66.8175C13.8816 67.7319 14.5209 68.0977 15.7994 68.0977C16.1647 68.0977 16.6214 68.0062 16.8953 67.8234L16.9867 66.0859ZM13.6076 64.0741C13.6076 65.5373 12.877 66.3602 11.4158 66.3602C10.2285 66.3602 9.7719 65.903 9.7719 65.08C9.7719 63.9827 10.5938 63.7084 12.0551 63.5255C12.9683 63.434 13.4249 63.2511 13.6989 63.0683V64.0741H13.6076ZM24.2014 60.2335V57.6731C24.0188 57.5816 23.8361 57.5816 23.5621 57.5816C22.1923 57.5816 20.9137 58.4046 20.3657 59.6848V57.8559H17.7173V67.8234H20.4571V63.3426C20.4571 61.5137 21.1877 60.1421 23.1968 60.1421C23.5621 60.1421 23.8361 60.2335 24.2014 60.2335ZM31.5075 59.2276C30.8682 58.1303 29.681 57.5816 28.4938 57.6731C25.6627 57.6731 24.2014 60.0506 24.2014 62.611C24.2014 65.5373 25.5713 67.6405 28.4938 67.6405C29.681 67.7319 30.8682 67.0918 31.5075 66.0859V67.4576C31.5075 69.0121 30.6856 69.8351 29.3157 69.8351C28.2198 69.8351 27.4892 69.4694 27.3065 68.4635H24.5667C24.6581 70.4752 26.6672 71.664 28.9504 71.664C32.6034 71.664 34.156 69.8351 34.156 67.2747V57.9474H31.5075V59.2276ZM31.5075 62.7025C31.5075 64.257 30.6856 65.4458 29.133 65.4458C27.5805 65.4458 26.9412 64.0741 26.9412 62.4282C26.9412 60.7822 27.7632 59.5934 29.133 59.5934C31.0509 59.6848 31.5075 61.3308 31.5075 62.7025ZM44.8411 63.0683V63.6169H37.6264C37.7177 65.3544 38.5396 66.1774 40.0922 66.1774C41.0968 66.1774 42.1014 65.5372 42.284 64.8971H44.6585C43.9279 67.1832 42.3753 68.2806 40.0009 68.2806C36.8044 68.2806 34.8866 66.0859 34.8866 63.0683C34.8866 60.0506 36.9871 57.8559 40.0009 57.8559C43.1059 57.6731 44.8411 60.142 44.8411 63.0683ZM42.1014 61.788C41.8274 60.3249 41.1881 59.6848 39.9095 59.6848C39.3616 59.6848 38.7223 59.8677 38.357 60.2335C37.9004 60.5993 37.7177 61.2394 37.7177 61.788H42.1014ZM48.9508 54.9297V57.9474H50.96V59.7763H48.9508V64.7143C48.9508 65.6287 49.2248 65.903 50.1381 65.903C50.412 65.903 50.686 65.903 50.96 65.8116V67.9148C50.412 68.0062 49.8641 68.0062 49.3161 68.0062C47.2156 68.0062 46.211 67.3661 46.211 65.6287V59.7763H44.5672V57.9474H46.211V54.9297H48.9508Z" fill="#CC0000"/>
</g>
<defs>
<clipPath id="clip0_86_330">
<rect width="50.96" height="70.7778" fill="white" transform="translate(0 0.88623)"/>
</clipPath>
</defs>
</svg>
