<svg width="169" height="42" viewBox="0 0 169 42" fill="none" xmlns="http://www.w3.org/2000/svg">
<g clip-path="url(#clip0_86_356)">
<path fill-rule="evenodd" clip-rule="evenodd" d="M93.9008 27.0311C93.9008 27.3533 93.8474 27.7291 93.7939 27.9975C93.3132 29.3933 92.0313 30.306 90.5357 30.306C89.2004 30.306 88.1855 29.5544 88.1855 27.9438C88.1855 25.4743 90.8562 24.83 93.9542 24.83V27.0311H93.9008ZM98.708 22.7363C98.708 18.7098 96.9987 15.1129 91.1767 15.1129C88.1855 15.1129 85.7819 15.9719 84.5 16.7235L85.4614 19.9983C86.957 19.1393 88.6128 18.6562 90.3221 18.6025C93.3132 18.6025 93.7939 20.2667 93.7939 21.3404V21.6089C87.3309 21.6089 83.2715 23.8637 83.2715 28.427C83.2715 31.2186 85.3546 33.8492 88.9867 33.8492C91.1767 33.8492 93.0462 32.9903 94.1678 31.5407H94.2747C94.2747 31.5407 95.0224 34.6545 99.0819 33.4734C98.8682 32.185 98.7614 30.7891 98.7614 29.1786V22.7363H98.708ZM0 9.58325L4.91403 29.7691C5.71523 33.044 7.10398 34.2787 11.1634 33.4734L13.7807 22.7363C14.4216 20.052 14.9023 18.173 15.3296 15.435H15.3831C15.7035 18.173 16.1308 20.052 16.665 22.7363L18.2674 30.1986C18.8549 32.7755 20.3505 34.3861 24.3565 33.4734L30.6059 9.63694H25.5316L23.3951 19.9446C22.8075 22.951 22.2734 25.3132 21.8995 28.0512C21.5256 25.3132 21.0449 23.0584 20.4573 20.1594L18.2674 9.63694H12.9795L10.5759 19.8909C9.93489 23.0047 9.29393 25.5279 8.86662 28.1585H8.81321C8.3859 25.689 7.85177 22.5215 7.26422 19.5151L5.34134 9.58325H0ZM39.8998 27.0311C39.8998 27.3533 39.8998 27.7291 39.793 27.9975C39.3123 29.3933 38.0303 30.306 36.5348 30.306C35.1994 30.306 34.1846 29.5544 34.1846 27.9438C34.1846 25.4743 36.8553 24.83 39.9532 24.83V27.0311H39.8998ZM44.7604 22.7363C44.7604 18.7098 43.0512 15.1129 37.2291 15.1129C34.238 15.1129 31.8344 15.9719 30.5525 16.7235L31.5139 19.9983C33.0095 19.1393 34.6653 18.6562 36.3745 18.6025C39.3657 18.6025 39.8464 20.2667 39.8464 21.3404V21.6089C33.3834 21.6089 29.324 23.8637 29.324 28.427C29.324 31.2186 31.4071 33.8492 35.0392 33.8492C37.2291 33.8492 39.0986 32.9903 40.2203 31.5407H40.3271C40.3271 31.5407 41.0749 34.6545 45.1343 33.4734C44.9207 32.185 44.8138 30.7891 44.8138 29.1786V22.7363H44.7604ZM52.1849 28.3733V9.58325H47.3777V33.4198H52.1849V28.3733ZM113.503 9.63694V27.1922C113.503 29.6081 113.931 31.326 114.946 32.346C115.8 33.2587 117.189 33.8492 118.845 33.8492C120.287 33.8492 121.676 33.5808 122.317 33.3124L122.263 29.5007C121.783 29.6617 121.195 29.7154 120.447 29.7154C118.791 29.7154 118.257 28.6954 118.257 26.4943V19.8372H122.477V15.2739H118.257V9.58325L113.503 9.63694ZM101.058 15.5424V33.4734H106.026V24.2932C106.026 23.81 106.079 23.3805 106.132 22.951C106.506 21.0183 107.948 19.7836 110.085 19.7836C110.673 19.7836 111.046 19.8372 111.527 19.8909V15.1666C111.153 15.1129 110.779 15.0592 110.459 15.0592C108.589 15.0592 106.506 16.2403 105.598 18.8709H105.491V15.4887L101.058 15.5424ZM55.0158 15.5424V33.4734H59.823V22.951C59.823 22.4678 59.8764 21.931 60.0367 21.5015C60.4106 20.4278 61.4254 19.193 62.9744 19.193C64.9507 19.193 65.8587 20.8573 65.8587 23.2194V33.4198H70.7193V22.79C70.7193 22.3068 70.7728 21.7162 70.933 21.3404C71.3069 20.052 72.5354 19.1393 73.8707 19.1393C75.847 19.1393 76.8085 20.7499 76.8085 23.5952V33.4198H81.6691V22.8973C81.6691 17.3677 78.8382 15.1129 75.6868 15.1129C74.2446 15.1129 73.1764 15.4887 72.1615 16.0792C71.3069 16.6161 70.5591 17.3677 69.9181 18.334H69.8647C69.0635 16.3477 67.0872 15.0592 64.9507 15.1129C62.8142 15.0055 60.7845 16.0792 59.7696 17.9582H59.7162V15.5424H55.0158Z" fill="#0071DC"/>
<path fill-rule="evenodd" clip-rule="evenodd" d="M148.49 14.7372C149.451 14.7372 150.253 14.2003 150.359 13.6098L151.267 2.81892C151.267 1.7452 150.039 0.88623 148.49 0.88623C146.941 0.88623 145.712 1.7452 145.712 2.81892L146.674 13.6098C146.727 14.254 147.528 14.7372 148.49 14.7372ZM142.668 18.1194C143.149 17.2604 143.095 16.3477 142.614 15.9183L133.801 9.74439C132.893 9.20753 131.504 9.85176 130.757 11.1939C129.955 12.5361 130.116 14.0929 131.024 14.5761L140.798 19.1394C141.386 19.3542 142.241 18.9247 142.668 18.1194ZM154.259 18.0657C154.739 18.9247 155.54 19.3542 156.181 19.0857L165.903 14.5224C166.811 13.9856 166.971 12.4824 166.17 11.1402C165.369 9.79808 164.033 9.15385 163.125 9.6907L154.312 15.9183C153.831 16.3477 153.778 17.2604 154.259 18.0657ZM148.49 28.1586C149.451 28.1586 150.253 28.6955 150.359 29.286L151.267 40.0769C151.267 41.1506 150.039 42.0096 148.49 42.0096C146.941 42.0096 145.712 41.1506 145.712 40.0769L146.674 29.286C146.727 28.6418 147.528 28.1586 148.49 28.1586ZM154.259 24.8301C154.739 23.9711 155.54 23.5416 156.181 23.7564L165.903 28.3197C166.811 28.8565 166.971 30.3597 166.17 31.7019C165.369 33.044 164.033 33.6883 163.125 33.1514L154.312 26.9775C153.831 26.6017 153.778 25.6354 154.259 24.8301ZM142.668 24.8301C143.149 25.6354 143.095 26.6017 142.614 27.0312L133.801 33.2051C132.893 33.742 131.504 33.0977 130.757 31.7556C129.955 30.4134 130.116 28.9102 131.024 28.3734L140.798 23.8101C141.386 23.5416 142.241 23.9711 142.668 24.8301ZM167.986 32.2387H168.093C168.199 32.2387 168.306 32.1851 168.306 32.1314C168.306 32.024 168.253 32.024 168.146 32.024H168.039V32.2387H167.986ZM167.986 32.7219H167.772V31.8629H168.093C168.253 31.8629 168.306 31.8629 168.413 31.9166C168.467 31.9703 168.52 32.024 168.52 32.0777C168.52 32.1851 168.467 32.2387 168.36 32.2924C168.467 32.3461 168.52 32.3998 168.52 32.5072C168.52 32.6682 168.573 32.6682 168.573 32.7219H168.36C168.306 32.6682 168.306 32.6145 168.306 32.5072C168.306 32.3998 168.253 32.3998 168.146 32.3998H168.039L167.986 32.7219ZM168.093 31.5945C167.719 31.5945 167.452 31.9166 167.452 32.2924C167.452 32.6682 167.719 32.9903 168.093 32.9903C168.467 32.9903 168.734 32.6682 168.734 32.2924C168.787 31.9166 168.467 31.5945 168.093 31.5945ZM168.093 31.4335C168.573 31.4335 168.947 31.8093 168.947 32.2924C168.947 32.7756 168.573 33.1514 168.093 33.1514C167.612 33.1514 167.185 32.7756 167.185 32.2924C167.238 31.8093 167.612 31.4335 168.093 31.4335Z" fill="#F3B53B"/>
</g>
<defs>
<clipPath id="clip0_86_356">
<rect width="169" height="41.1233" fill="white" transform="translate(0 0.88623)"/>
</clipPath>
</defs>
</svg>
